<svg xmlns="http://www.w3.org/2000/svg" version="1.1" xmlns:xlink="http://www.w3.org/1999/xlink" xmlns:svgjs="http://svgjs.dev/svgjs" width="1000" height="1125" viewBox="0 0 1000 1125"><g transform="matrix(1,0,0,1,1.7053025658242404e-13,0)"><svg viewBox="0 0 320 360" data-background-color="#ffffff" preserveAspectRatio="xMidYMid meet" height="1125" width="1000" xmlns="http://www.w3.org/2000/svg" xmlns:xlink="http://www.w3.org/1999/xlink"><g id="tight-bounds" transform="matrix(1,0,0,1,0,0)"><svg viewBox="0 0 320 360" height="360" width="320"><g><svg></svg></g><g><svg viewBox="0 0 320 360" height="360" width="320"><g><path xmlns="http://www.w3.org/2000/svg" d="M20.961 227.22l3.726 4.658-1.863-6.056c-0.466-2.795-3.726 0.466-1.863 1.398M25.153 224.425c1.397 2.329 2.795 4.658 2.795 6.987 0 3.261 2.795 4.658 5.123 5.589-3.261-3.726-5.124-13.974-7.918-12.576M204.017 26.929c7.918 0 15.371-0.932 23.756 0.931 20.495 5.124 37.729 15.371 49.374 29.811l32.606 52.169c1.397 13.042 4.192 27.482 3.726 43.319 3.261 0 2.795-4.658 6.521-5.59-3.726 9.316-5.59 20.961-6.521 34.469-2.329-7.453 0-18.632 0.466-24.687-3.261 5.124-5.124 1.397-5.124-0.932 0.466-3.726-1.397-3.261-2.795-4.658-5.124-4.658-8.384-9.782-12.11-17.7 2.329-6.055 2.795-14.905-4.658-19.563-2.329-1.397-5.124-3.726-6.521-7.453-1.863-5.124-5.124-11.179-4.193-19.097 0.466-2.329-6.987 5.124-11.179 1.863-18.166-12.576-36.332-27.016-58.224-39.127-11.645 0-20.029-4.192-24.221-9.316-3.726-4.658-0.932-10.713 4.658-11.179 3.261 0 6.987-0.932 9.782 0.932 0.466-1.863 2.329-4.192 4.657-4.192M157.904 16.215l0.932 0.466c4.658 0.932 6.987 7.453 12.11 5.124 0 3.261 0.466 6.521-0.466 8.85-1.397 3.726-5.59 3.726-8.85 3.726-31.208-1.863-49.374 11.179-68.471 22.358-5.124 3.261-10.713 5.59-14.906 9.782-20.029 18.632-41.921 35.866-47.045 70.335l-4.192 38.195c-0.466 4.192-5.124 8.384-4.192 13.508l3.26 22.824c-3.261-3.261-5.124 0.932-4.192 2.795 0.466 1.397 2.329 6.055 5.124 1.863 3.726 6.987 7.453 20.495 12.576 26.55 15.837 18.632 36.332 35.4 53.101 52.169 4.192-0.932 7.453-0.932 8.384-3.727 1.397 2.795-1.397 5.59-3.726 6.056 7.453 4.658 15.837 8.85 27.016 9.781 14.44 0.932 27.948 3.261 40.524 6.522 6.521-1.863 13.042-2.795 20.029-3.261 2.329 0 3.726-3.726 6.521-4.658l0.466-4.658c2.795 4.192 2.329-1.397 0.466-4.192 3.261 2.795 4.192 5.124 5.589 6.987 0-1.397 3.726-6.521 3.727-0.466l0.931-6.055c1.397-0.932 1.863 5.124 3.261 0.931 1.397-4.192 4.192-0.932 6.987-2.329-0.932 1.863-0.466 5.59 2.794 3.261l3.727-3.261c2.329 5.59 6.055 3.261 7.918 2.329 20.495-13.042 40.99-28.413 60.553-43.784l-0.466 6.055 2.329-7.453c2.329 2.329 4.192 0.466 5.124-0.931 2.795-4.658 6.521-9.316 12.577-13.508-7.453 20.029-16.303 35.866-27.482 48.908l-4.658 5.59c0 3.261-0.932 7.453-4.658 7.918-1.863 0.466-5.59-0.932-8.384 1.863-1.397 1.863 3.261 5.59-0.466 2.795-3.261-2.329-6.521 0-10.248 0.932-2.795 0.932 1.863 3.726 2.795 5.589 0.932 1.863 1.863 3.726 1.398 6.056l-5.124-5.59c-6.055 3.261-9.782 9.316-14.906 13.974-2.329 1.863-1.397 5.124-1.397 7.918-3.261 0-6.987-0.932-8.85 0.932-1.397 1.863-0.932 4.658-0.932 7.453-4.658-0.466-5.124-7.453-9.315-6.056-4.192 0.932-8.85 1.397-12.577 3.727 2.795 5.59-4.658 2.329-3.726 3.26-6.987-4.192-13.042-7.453-20.495-4.658-15.837-5.124-35.4-2.795-49.84-0.931 0-2.329 0.466-4.658-0.466-5.124-0.932 2.329-3.726 1.397-3.26 1.397-8.85-6.055-17.7-9.782-27.016-14.905-8.384 0.932-16.303-3.261-18.632-5.59-6.521-6.055-13.974-2.795-20.029-4.192-13.042-3.261-17.7-16.769-19.098-26.084-0.932-4.658-4.658-6.521-6.055-6.056-6.055-19.563-15.371-37.263-22.824-55.429-1.863-4.658-1.397-9.316-1.397-14.44 2.329 0.932 4.658 0.466 4.192-2.794-2.329-15.371-7.918-27.016-13.974-38.195 3.261-15.837 3.726-34.469 11.179-48.443 6.521-12.576 18.632-19.098 27.016-29.811 2.795-3.726 2.795-8.85 5.59-12.11 9.316-9.316 18.632-19.098 28.879-27.482 4.658-3.726 10.247 0 17.234-1.397 2.329-8.384 11.645-15.837 20.495-13.508 3.726 0.932 11.179-8.85 13.508-9.782 3.726-1.397 1.863 3.726 1.863 6.987 8.85-6.987 20.961-10.713 32.14-14.906" fill="#919591" fill-rule="nonzero" stroke="none" stroke-width="1" stroke-linecap="butt" stroke-linejoin="miter" stroke-miterlimit="10" stroke-dasharray="" stroke-dashoffset="0" font-family="none" font-weight="none" font-size="none" text-anchor="none" style="mix-blend-mode: normal" data-fill-palette-color="tertiary"></path></g><g transform="matrix(1,0,0,1,64,129.9100642398287)"><svg viewBox="0 0 192 100.1798715203426" height="100.1798715203426" width="192"><g><svg viewBox="0 0 192 100.1798715203426" height="100.1798715203426" width="192"><g><svg viewBox="0 0 192 100.1798715203426" height="100.1798715203426" width="192"><g><svg viewBox="0 0 192 100.1798715203426" height="100.1798715203426" width="192"><g><svg viewBox="0 0 192 100.1798715203426" height="100.1798715203426" width="192"><g><svg viewBox="0 0 192 100.1798715203426" height="100.1798715203426" width="192"><g transform="matrix(1,0,0,1,0,0)"><svg width="192" viewBox="3.549999952316284 -36.54999923706055 70.03999328613281 36.54999923706055" height="100.1798715203426" data-palette-color="#919591"><path d="M21.45 0L5.45 0Q4.75 0 4.15-0.38 3.55-0.75 3.55-1.5L3.55-1.5 3.55-35.1Q3.55-35.85 4.23-36.2 4.9-36.55 5.65-36.55L5.65-36.55Q6.45-36.55 7.1-36.2 7.75-35.85 7.75-35.1L7.75-35.1 7.75-3.8 21.45-3.8Q22.15-3.8 22.48-3.23 22.8-2.65 22.8-1.9L22.8-1.9Q22.8-1.2 22.48-0.6 22.15 0 21.45 0L21.45 0ZM38.6 0L28.85 0Q28 0 27.47-0.43 26.95-0.85 26.95-1.45L26.95-1.45 26.95-35.05Q26.95-35.8 27.55-36.18 28.15-36.55 28.85-36.55L28.85-36.55 37.45-36.55Q40.2-36.55 42.52-35.88 44.85-35.2 46.22-33.35 47.6-31.5 47.6-28L47.6-28Q47.6-24.85 46.45-22.75 45.3-20.65 43.35-19.8L43.35-19.8Q44.9-19.2 46.05-18.18 47.2-17.15 47.85-15.53 48.5-13.9 48.5-11.3L48.5-11.3 48.5-10.4Q48.5-6.55 47.2-4.28 45.9-2 43.65-1 41.4 0 38.6 0L38.6 0ZM31.15-18.05L31.15-3.8 37.9-3.8Q40.95-3.8 42.62-5.45 44.3-7.1 44.3-10.65L44.3-10.65 44.3-11.5Q44.3-15.1 42.62-16.57 40.95-18.05 37.9-18.05L37.9-18.05 31.15-18.05ZM31.15-32.75L31.15-21.55 37.4-21.55Q40.5-21.55 41.95-22.93 43.4-24.3 43.4-27.4L43.4-27.4Q43.4-29.45 42.62-30.63 41.85-31.8 40.47-32.27 39.1-32.75 37.25-32.75L37.25-32.75 31.15-32.75ZM61.95 0L61.95 0Q61.15 0 60.5-0.38 59.84-0.75 59.84-1.5L59.84-1.5 59.84-32.65 51.74-32.65Q51.09-32.65 50.7-33.25 50.3-33.85 50.3-34.65L50.3-34.65Q50.3-35.35 50.65-35.95 50.99-36.55 51.74-36.55L51.74-36.55 72.15-36.55Q72.9-36.55 73.25-35.95 73.59-35.35 73.59-34.65L73.59-34.65Q73.59-33.9 73.25-33.27 72.9-32.65 72.15-32.65L72.15-32.65 64.05-32.65 64.05-1.5Q64.05-0.75 63.4-0.38 62.75 0 61.95 0Z" opacity="1" transform="matrix(1,0,0,1,0,0)" fill="#919591" class="undefined-text-0" data-fill-palette-color="primary" id="text-0"></path></svg></g></svg></g></svg></g></svg></g><g></g></svg></g></svg></g></svg></g></svg></g><defs></defs></svg><rect width="320" height="360" fill="none" stroke="none" visibility="hidden"></rect></g></svg></g></svg>